<?xml version="1.0" encoding="UTF-8" standalone="no"?>
<svg
   version="1.1"
   viewBox="0 -64 1024 1024"
   width="512"
   height="512"
   id="svg694"
   sodipodi:docname="mech.svg"
   inkscape:version="1.2.2 (b0a8486541, 2022-12-01)"
   xmlns:inkscape="http://www.inkscape.org/namespaces/inkscape"
   xmlns:sodipodi="http://sodipodi.sourceforge.net/DTD/sodipodi-0.dtd"
   xmlns="http://www.w3.org/2000/svg"
   xmlns:svg="http://www.w3.org/2000/svg">
  <defs
     id="defs698" />
  <sodipodi:namedview
     id="namedview696"
     pagecolor="#ffffff"
     bordercolor="#000000"
     borderopacity="0.25"
     inkscape:showpageshadow="2"
     inkscape:pageopacity="0.0"
     inkscape:pagecheckerboard="0"
     inkscape:deskcolor="#d1d1d1"
     showgrid="false"
     inkscape:zoom="1.6152344"
     inkscape:cx="255.69045"
     inkscape:cy="256.61911"
     inkscape:window-width="2560"
     inkscape:window-height="1008"
     inkscape:window-x="0"
     inkscape:window-y="0"
     inkscape:window-maximized="1"
     inkscape:current-layer="svg694" />
  <g
     transform="matrix(1 0 0 -1 0 960)"
     id="g692"
     style="fill:#ffffff">
    <path
       fill="currentColor"
       d="M478 107h-103v307h51v-68l52 -35v-204zM444 789l-34 -68h-171v-68l136 -34v-103l69 -34l34 -102h68l34 102l69 34v103l136 34v68h-171l-34 68h-136zM512 721l68 -68l-68 -68l-68 68zM547 107h102v307h-52v-68l-50 -35v-204zM785 585l-68 -18v-221l68 34v205zM239 585 l68 -18v-221l-68 34v205z"
       id="path690"
       style="fill:#ffffff" />
  </g>
</svg>
