<?xml version="1.0" encoding="UTF-8" standalone="no"?>
<svg
   version="1.1"
   viewBox="0 -64 1024 1024"
   width="512"
   height="512"
   id="svg739"
   sodipodi:docname="protocol.svg"
   inkscape:version="1.2.2 (b0a8486541, 2022-12-01)"
   xmlns:inkscape="http://www.inkscape.org/namespaces/inkscape"
   xmlns:sodipodi="http://sodipodi.sourceforge.net/DTD/sodipodi-0.dtd"
   xmlns="http://www.w3.org/2000/svg"
   xmlns:svg="http://www.w3.org/2000/svg">
  <defs
     id="defs743" />
  <sodipodi:namedview
     id="namedview741"
     pagecolor="#ffffff"
     bordercolor="#000000"
     borderopacity="0.25"
     inkscape:showpageshadow="2"
     inkscape:pageopacity="0.0"
     inkscape:pagecheckerboard="0"
     inkscape:deskcolor="#d1d1d1"
     showgrid="false"
     inkscape:zoom="1.6152344"
     inkscape:cx="255.69045"
     inkscape:cy="256.61911"
     inkscape:window-width="2560"
     inkscape:window-height="1008"
     inkscape:window-x="0"
     inkscape:window-y="0"
     inkscape:window-maximized="1"
     inkscape:current-layer="svg739" />
  <g
     transform="matrix(1 0 0 -1 0 960)"
     id="g737"
     style="fill:#ffffff">
    <path
       fill="currentColor"
       d="M512 755q-61 0 -117 -25t-98 -67t-67 -98t-25 -117h68q0 46 20 89t53.5 76.5t76.5 53.5t89 20q48 0 92.5 -22t77.5 -58l-68 -22l171 -69v196l-45 -63q-43 48 -102.5 77t-125.5 29v0zM512 516v0v0q-28 0 -48 -20t-20 -48v0v0v0v0v0q0 -28 20 -48t48 -20v0v0v0v0v0 q28 0 48 20t20 48v0v0v0v0v0q0 28 -20 48t-48 20v0v0v0v0zM751 448v0q0 -46 -20 -89t-53.5 -76.5t-76.5 -53.5t-89 -20q-48 0 -92.5 22t-77.5 58l68 22l-171 69v-196l45 63q43 -48 102.5 -77t125.5 -29q61 0 117 25t98 67t67 98t25 117v0h-68z"
       id="path735"
       style="fill:#ffffff" />
  </g>
</svg>
